<svg width="800" height="800" viewBox="0 0 800 800" fill="none" xmlns="http://www.w3.org/2000/svg">
<path d="M533.333 666.667C514.924 666.667 500 651.743 500 633.333C500 614.924 514.924 600 533.333 600C551.743 600 566.667 614.924 566.667 633.333C566.667 651.743 551.743 666.667 533.333 666.667ZM533.333 200C514.924 200 500 185.076 500 166.667C500 148.257 514.924 133.333 533.333 133.333C551.743 133.333 566.667 148.257 566.667 166.667C566.667 185.076 551.743 200 533.333 200ZM200 433.333C181.591 433.333 166.667 418.41 166.667 400C166.667 381.591 181.591 366.667 200 366.667C218.41 366.667 233.333 381.591 233.333 400C233.333 418.41 218.41 433.333 200 433.333Z" fill="#FB8C00"/>
<path d="M327.44 360.676C331.271 373.106 333.333 386.312 333.333 400C333.333 413.731 331.258 426.977 327.404 439.441L455.22 525.266C477.172 509.37 504.158 500 533.333 500C606.971 500 666.667 559.695 666.667 633.333C666.667 706.971 606.971 766.667 533.333 766.667C459.695 766.667 400 706.971 400 633.333C400 613.157 404.482 594.027 412.504 576.884L292.331 496.192C268.372 519.195 235.837 533.333 200 533.333C126.362 533.333 66.6667 473.638 66.6667 400C66.6667 326.362 126.362 266.667 200 266.667C235.884 266.667 268.456 280.842 292.424 303.898L412.796 223.736C404.591 206.436 400 187.087 400 166.667C400 93.0287 459.695 33.3334 533.333 33.3334C606.971 33.3334 666.667 93.0287 666.667 166.667C666.667 240.305 606.971 300 533.333 300C504.429 300 477.672 290.802 455.831 275.174L327.44 360.676ZM533.333 233.333C570.152 233.333 600 203.486 600 166.667C600 129.848 570.152 100 533.333 100C496.514 100 466.667 129.848 466.667 166.667C466.667 203.486 496.514 233.333 533.333 233.333ZM533.333 700C570.152 700 600 670.152 600 633.333C600 596.514 570.152 566.667 533.333 566.667C496.514 566.667 466.667 596.514 466.667 633.333C466.667 670.152 496.514 700 533.333 700ZM200 466.667C236.819 466.667 266.667 436.819 266.667 400C266.667 363.181 236.819 333.333 200 333.333C163.181 333.333 133.333 363.181 133.333 400C133.333 436.819 163.181 466.667 200 466.667Z" fill="#AB3089"/>
</svg>
