<svg width="800" height="800" viewBox="0 0 800 800" fill="none" xmlns="http://www.w3.org/2000/svg">
<path d="M617.263 680.126C617.241 685.431 615.121 690.512 611.366 694.259C607.611 698.006 602.526 700.115 597.221 700.126H202.779C197.481 700.104 192.407 697.99 188.661 694.244C184.915 690.498 182.801 685.424 182.779 680.126V128.253C182.801 122.955 184.915 117.881 188.661 114.135C192.407 110.389 197.481 108.275 202.779 108.253H495.41L617.221 230.063L617.263 680.126ZM570.526 262.274H486.695C480.288 262.263 474.147 259.713 469.617 255.183C465.087 250.653 462.537 244.512 462.526 238.105V154.905H229.474V653.432H570.61L570.526 262.274ZM506.568 439.032C506.568 444.336 504.461 449.423 500.71 453.174C496.96 456.924 491.873 459.032 486.568 459.032H420V525.642C420 528.269 419.483 530.869 418.477 533.296C417.472 535.722 415.999 537.927 414.142 539.784C412.285 541.641 410.08 543.115 407.654 544.12C405.227 545.125 402.626 545.642 400 545.642C397.373 545.642 394.773 545.125 392.346 544.12C389.92 543.115 387.715 541.641 385.858 539.784C384.001 537.927 382.527 535.722 381.522 533.296C380.517 530.869 380 528.269 380 525.642V459.032H313.431C308.127 459.032 303.04 456.924 299.289 453.174C295.539 449.423 293.431 444.336 293.431 439.032C293.431 433.727 295.539 428.64 299.289 424.889C303.04 421.139 308.127 419.032 313.431 419.032H380V352.505C380 347.201 382.107 342.114 385.858 338.363C389.608 334.612 394.696 332.505 400 332.505C405.304 332.505 410.391 334.612 414.142 338.363C417.893 342.114 420 347.201 420 352.505V419.032H486.568C491.873 419.032 496.96 421.139 500.71 424.889C504.461 428.64 506.568 433.727 506.568 439.032Z" fill="white"/>
</svg>
