<svg width="800" height="800" viewBox="0 0 800 800" fill="none" xmlns="http://www.w3.org/2000/svg">
<path d="M276.43 356.904C263.412 343.886 263.412 322.781 276.43 309.763C289.447 296.746 310.553 296.746 323.57 309.763L390.237 376.43C403.255 389.447 403.255 410.553 390.237 423.57C377.22 436.588 356.114 436.588 343.097 423.57L276.43 356.904ZM133.333 566.667H666.667V633.333H133.333V566.667Z" fill="#D3D3D3"/>
<path d="M433.333 419.526L509.763 343.096C522.781 330.079 543.886 330.079 556.904 343.096C569.921 356.114 569.921 377.219 556.904 390.237L423.57 523.57C410.553 536.588 389.447 536.588 376.43 523.57L243.097 390.237C230.079 377.219 230.079 356.114 243.097 343.096C256.114 330.079 277.219 330.079 290.237 343.096L366.667 419.526V133.284C366.667 114.902 381.591 100 400 100C418.41 100 433.333 114.902 433.333 133.284V419.526ZM666.667 633.333V433.333C666.667 414.924 681.591 400 700 400C718.41 400 733.333 414.924 733.333 433.333V666.667C733.333 685.076 718.41 700 700 700H100C81.5906 700 66.6667 685.076 66.6667 666.667V433.333C66.6667 414.924 81.5906 400 100 400C118.41 400 133.333 414.924 133.333 433.333V633.333H666.667Z" fill="#292929"/>
</svg>
