<svg width="800" height="800" viewBox="0 0 800 800" fill="none" xmlns="http://www.w3.org/2000/svg">
<path d="M300 166.667H233.333C196.514 166.667 166.667 196.514 166.667 233.333V633.333C166.667 670.153 196.514 700 233.333 700H300M500 166.667H566.667C603.487 166.667 633.333 196.514 633.333 233.333V300" stroke="black" stroke-width="66.6667" stroke-linecap="round" stroke-linejoin="round"/>
<path d="M496.733 677.81L423.843 692.387L438.42 619.5C439.713 613.047 442.883 607.12 447.537 602.467L583.333 466.667L650 400L716.23 466.23L649.563 532.897L513.767 668.693C509.113 673.347 503.187 676.52 496.733 677.81Z" stroke="black" stroke-width="66.6667" stroke-linecap="round" stroke-linejoin="round"/>
<path d="M300 166.667C300 129.848 329.848 100 366.667 100H433.333C470.153 100 500 129.848 500 166.667V233.333H300V166.667Z" stroke="black" stroke-width="66.6667" stroke-linecap="round" stroke-linejoin="round"/>
</svg>
