<svg width="800" height="800" viewBox="0 0 800 800" fill="none" xmlns="http://www.w3.org/2000/svg">
<g clip-path="url(#clip0_18_194)">
<rect x="208" y="230" width="404" height="385" fill="#FB8C00"/>
<path d="M446.698 354.362V331.313C446.698 306.4 427.157 287.248 402.239 287.248H401.667C376.751 287.248 355.42 306.4 355.42 331.313V354.362H446.698Z" fill="#AB3089"/>
<path d="M575.557 136.913H710.349L575.557 0V136.913Z" fill="#FB8C00"/>
<path d="M535.288 157.047V0H159.001C121.992 0 89.6509 30.553 89.6509 67.5597V732.44C89.6509 769.447 121.995 800 159.001 800H644.907C681.914 800 709.785 769.447 709.785 732.44V177.181H556.317C545.195 177.181 535.288 168.169 535.288 157.047ZM500.389 501.64C500.389 531.246 478.539 555.705 448.934 555.705H354.974C325.369 555.705 299.047 531.248 299.047 501.64V407.681C299.047 392.95 304.416 379.686 315.154 370.067V331.31C315.154 284.193 354.548 246.977 401.67 246.977H402.242C449.364 246.977 486.969 284.193 486.969 331.31V371.595C495.023 381.071 500.392 393.697 500.392 407.678L500.389 501.64Z" fill="#AB3089"/>
<path d="M362.819 432.803C362.819 446.217 368.846 458.035 379.584 464.975V496.024C379.584 506.626 389.122 515.208 399.724 515.208C410.32 515.208 419.852 506.626 419.852 496.024V466.604C433.275 459.995 440.196 447.337 440.196 432.8C440.196 411.434 422.873 394.11 401.506 394.11C380.142 394.113 362.819 411.436 362.819 432.803Z" fill="#AB3089"/>
</g>
<defs>
<clipPath id="clip0_18_194">
<rect width="800" height="800" fill="white"/>
</clipPath>
</defs>
</svg>
